<svg version="1" xmlns="http://www.w3.org/2000/svg" width="650.667" height="650.667" viewBox="0 0 488.000000 488.000000"><path d="M263 5.1c-1.9 27-5 40.8-13.5 58.5-14.3 30.1-31.9 50.8-72.4 84.7-28 23.4-41.6 36.1-53.6 50.2-3.3 3.8-6.6 7.6-7.3 8.3-3.5 3.8-14.6 18.7-19.6 26.4-6.7 10.3-16.5 30.3-20 40.8-5.8 17.6-8.1 32.4-7.9 52.5.2 39.6 14.7 76.5 40.7 104.2 4.8 5 11.7 11.4 15.4 14.1 6.4 4.8 40.3 23.3 41.1 22.6.2-.2-1.2-3.9-3.3-8.2-9-19.3-9-44.6 0-62.4 8-15.8 19.4-27.7 44.6-46.6 19.6-14.7 21.8-16.6 27.7-24.1 6.2-8 7.1-10.1 11-26.4l3.6-14.7 11 8.5c22 17 37.2 34.5 46 53 8.7 18.4 12.4 33.4 13.2 54.5 1 26.5-5 49.2-17.9 68.3-2.2 3.2-3.8 6-3.6 6.3.9.8 15.5-4.8 25.3-9.7 18.3-9.2 31.7-18.9 46-33.3 15.7-15.8 24.3-27.6 33.5-46.1 10.5-21.1 16.7-42.1 20.6-70.5 2-14.5 2.8-62.5 1.3-75.5-3.3-28.5-12.1-60.1-24.4-87.5-23.8-53.1-67.7-103.3-120.4-137.7C266.2 6.2 263 4.3 263 5.1z"/></svg>
